<?xml version="1.0" standalone="no"?>
<!DOCTYPE svg PUBLIC "-//W3C//DTD SVG 20010904//EN"
 "http://www.w3.org/TR/2001/REC-SVG-20010904/DTD/svg10.dtd">
<svg version="1.0" xmlns="http://www.w3.org/2000/svg"
 width="109.000000pt" height="57.000000pt" viewBox="0 0 109.000000 57.000000"
 preserveAspectRatio="xMidYMid meet">

<g transform="translate(0.000000,57.000000) scale(0.100000,-0.100000)"
fill="#000000" stroke="none">
<path d="M0 285 l0 -285 545 0 545 0 0 285 0 285 -545 0 -545 0 0 -285z m84
97 c-6 -4 -14 -14 -17 -22 -4 -10 -6 -8 -6 8 -1 15 5 22 17 22 10 0 13 -3 6
-8z m29 -12 c3 -11 1 -20 -4 -20 -5 0 -9 9 -9 20 0 11 2 20 4 20 2 0 6 -9 9
-20z m37 -10 c5 0 11 7 13 15 4 11 4 10 3 -2 -2 -22 -30 -24 -32 -3 0 9 1 10
3 3 3 -7 8 -13 13 -13z m53 10 c-3 -11 -7 -20 -8 -20 -1 0 -5 9 -8 20 -3 12 0
20 8 20 8 0 11 -8 8 -20z m40 0 c-3 -11 -7 -20 -8 -20 -1 0 -5 9 -8 20 -3 12
0 20 8 20 8 0 11 -8 8 -20z m37 10 c-13 -9 -13 -11 0 -20 13 -8 12 -10 -2 -10
-11 0 -18 8 -18 20 0 12 7 20 18 20 14 0 15 -2 2 -10z m50 -1 c0 -5 -6 -7 -12
-3 -10 6 -10 5 -1 -7 10 -13 10 -16 -2 -16 -8 0 -15 9 -15 19 0 10 7 18 15 18
8 0 15 -5 15 -11z m60 -9 c0 -11 -7 -20 -15 -20 -8 0 -15 9 -15 20 0 11 7 20
15 20 8 0 15 -9 15 -20z m36 0 c0 -11 -6 -20 -13 -20 -7 0 -13 9 -13 20 0 11
6 20 13 20 7 0 13 -9 13 -20z m35 11 c7 11 9 10 9 -3 0 -9 -4 -20 -10 -23 -5
-3 -10 -4 -10 -1 0 2 -2 10 -3 18 -2 7 -2 9 1 4 2 -4 8 -2 13 5z m-350 -91
c21 -12 25 -50 7 -68 -7 -7 -22 -12 -35 -12 -20 0 -23 5 -23 38 0 53 12 63 51
42z m59 -10 c0 -11 7 -20 15 -20 8 0 15 9 15 21 0 11 5 17 10 14 6 -3 10 -24
10 -46 0 -21 -4 -39 -10 -39 -5 0 -10 7 -10 15 0 8 -7 15 -15 15 -8 0 -15 -7
-15 -15 0 -8 -4 -15 -10 -15 -5 0 -10 20 -10 45 0 25 5 45 10 45 6 0 10 -9 10
-20z m134 -32 c15 -38 10 -48 -12 -26 -10 10 -17 10 -33 0 -29 -19 -31 -13 -8
37 21 48 29 47 53 -11z m62 25 l18 -28 7 30 c6 26 7 23 8 -17 0 -27 -2 -48 -5
-48 -3 0 -14 10 -25 23 l-18 22 -1 -22 c0 -13 -4 -23 -10 -23 -5 0 -10 20 -10
45 0 52 10 57 36 18z"/>
<path d="M80 255 c0 -17 5 -25 13 -22 6 2 12 12 12 22 0 10 -6 20 -12 23 -8 2
-13 -6 -13 -23z"/>
</g>
</svg>
